<?xml version="1.0" standalone="no"?>
<!DOCTYPE svg PUBLIC "-//W3C//DTD SVG 20010904//EN"
 "http://www.w3.org/TR/2001/REC-SVG-20010904/DTD/svg10.dtd">
<svg version="1.0" xmlns="http://www.w3.org/2000/svg"
 width="256.000000pt" height="256.000000pt" viewBox="0 0 256.000000 256.000000"
 preserveAspectRatio="xMidYMid meet">

<g transform="translate(0.000000,256.000000) scale(0.100000,-0.100000)"
fill="#000000" stroke="none">
<path d="M0 1280 l0 -1280 1280 0 1280 0 0 1280 0 1280 -1280 0 -1280 0 0
-1280z m1376 900 c43 -136 43 -140 0 -140 -25 0 -35 5 -39 20 -4 16 -14 20
-50 20 -36 0 -46 -4 -50 -20 -4 -14 -14 -20 -34 -20 -16 0 -32 3 -36 6 -3 3
13 60 36 125 l41 120 49 -3 49 -3 34 -105z m-271 23 c3 -43 7 -98 8 -123 l2
-45 -35 0 -35 0 -12 114 c-6 63 -10 118 -7 123 3 4 20 8 39 8 l33 0 7 -77z
m451 52 c6 -14 -7 -134 -22 -208 -5 -26 -9 -28 -37 -21 -18 3 -34 8 -36 10 -3
3 15 158 25 207 5 22 11 27 35 27 17 0 32 -6 35 -15z m-282 -296 c33 -26 36
-79 5 -108 -16 -15 -19 -23 -11 -38 8 -15 6 -22 -10 -32 -18 -11 -23 -10 -44
16 l-23 28 -1 -37 c0 -35 -2 -38 -29 -38 -28 0 -28 1 -34 68 -4 37 -7 88 -7
115 l0 47 64 0 c49 0 69 -5 90 -21z m161 9 c2 -7 10 -35 18 -63 l14 -50 29 58
c27 55 31 58 59 53 16 -4 32 -10 36 -14 4 -4 4 -55 2 -114 l-6 -108 -28 0 -29
0 0 68 0 67 -25 -53 c-20 -43 -29 -53 -46 -50 -16 2 -26 16 -37 52 -17 53 -25
48 -37 -26 -5 -32 -10 -38 -30 -38 -13 0 -25 5 -27 11 -2 6 3 58 11 115 l14
104 39 0 c22 0 40 -5 43 -12z m-351 -14 c9 -23 -1 -34 -32 -34 -15 0 -33 -4
-41 -9 -22 -14 -3 -31 35 -31 29 0 34 -3 34 -24 0 -21 -6 -25 -32 -28 -21 -2
-33 -8 -33 -18 0 -11 10 -14 43 -11 42 3 43 2 40 -26 -3 -28 -4 -28 -70 -29
-54 -1 -69 2 -72 15 -9 31 -18 190 -12 200 4 6 36 11 71 11 48 0 64 -4 69 -16z
m-189 -6 c3 -7 11 -56 19 -108 14 -99 12 -110 -26 -110 -12 0 -19 11 -24 35
-7 37 -7 38 -40 29 -19 -5 -21 -11 -17 -45 6 -40 6 -39 -39 -43 -8 -1 -20 40
-34 107 l-21 108 24 10 c33 12 39 7 47 -41 6 -38 9 -41 34 -38 25 3 27 6 24
47 -3 29 1 47 10 52 19 13 38 11 43 -3z m889 -29 c10 -9 31 -227 23 -236 -13
-12 -57 8 -57 26 0 31 -72 45 -84 16 -6 -17 -24 -19 -46 -5 -13 8 -6 26 40
115 54 103 56 105 85 99 17 -3 34 -10 39 -15z m-1096 -32 c3 -21 -2 -28 -21
-33 l-25 -6 23 -84 c24 -88 24 -89 -19 -96 -17 -3 -23 9 -40 80 l-20 82 -32
-6 c-27 -5 -32 -2 -37 17 -4 13 -3 27 1 31 9 9 144 47 157 44 6 -1 11 -14 13
-29z m1319 -22 c27 -18 29 -37 8 -55 -13 -10 -19 -10 -33 4 -19 17 -52 22 -52
8 0 -4 16 -23 35 -42 19 -19 35 -42 35 -51 0 -33 -22 -68 -50 -79 -23 -10 -36
-8 -73 8 -55 24 -62 35 -38 56 17 16 20 15 49 -1 26 -15 33 -16 44 -5 11 11 6
19 -24 44 -93 75 -2 179 99 113z m-711 -119 c6 -17 -36 -86 -53 -86 -14 0 -4
43 18 78 16 25 27 28 35 8z m-233 -47 c26 -13 77 -60 77 -70 0 -3 -17 2 -37
12 -39 19 -156 42 -148 29 3 -4 17 -11 32 -14 62 -15 135 -49 121 -57 -22 -14
-107 -10 -141 7 -34 17 -97 73 -97 85 0 18 161 24 193 8z m257 -80 c71 -11
168 -53 215 -93 l30 -25 -165 6 c-254 9 -322 -7 -362 -86 -28 -56 -34 -57 -72
-16 -20 21 -36 41 -36 44 0 3 18 27 41 54 32 37 47 47 71 47 35 0 107 19 126
33 7 6 11 16 8 23 -4 12 12 18 64 22 8 1 44 -3 80 -9z m265 -168 c40 -23 65
-70 72 -134 5 -52 4 -55 -34 -95 -34 -36 -45 -42 -79 -41 l-39 2 44 7 c63 10
91 45 91 113 0 60 -31 124 -70 145 -19 9 -77 12 -227 10 -112 -2 -203 -6 -203
-9 0 -4 -6 -6 -12 -5 -7 0 -15 -3 -16 -9 -7 -20 -24 -35 -34 -29 -6 4 -8 -3
-4 -17 6 -21 6 -22 -5 -5 -16 26 17 68 67 82 62 19 410 7 449 -15z m-651 -62
c14 -11 26 -25 26 -31 0 -6 -11 1 -25 16 -27 30 -28 30 -58 15 -21 -10 -21
-10 -3 5 25 20 28 20 60 -5z m136 -71 c0 -51 -6 -47 -15 10 -4 30 -3 42 4 37
6 -3 11 -25 11 -47z m640 21 c0 -5 -4 -9 -10 -9 -5 0 -10 7 -10 16 0 8 5 12
10 9 6 -3 10 -10 10 -16z m-743 -31 c-3 -7 -5 -2 -5 12 0 14 2 19 5 13 2 -7 2
-19 0 -25z m176 -113 c20 -9 25 -14 14 -15 -22 0 -87 61 -87 82 0 7 9 -2 20
-20 11 -18 35 -39 53 -47z m-109 32 c19 -46 68 -85 119 -92 23 -4 131 -5 239
-3 186 3 198 4 227 26 17 12 31 21 31 19 0 -3 -7 -24 -15 -48 -20 -56 -57
-104 -108 -137 l-41 -27 -206 0 -207 0 -48 30 c-26 17 -63 52 -82 79 l-34 49
30 15 c28 13 71 80 71 110 0 21 9 13 24 -21z m443 -43 c-3 -3 -12 -4 -19 -1
-8 3 -5 6 6 6 11 1 17 -2 13 -5z m244 -161 c35 -21 66 -80 50 -96 -8 -8 -11
-5 -11 10 0 21 -53 83 -70 83 -4 0 -11 -7 -14 -16 -4 -9 -9 -14 -12 -11 -5 5
17 47 24 47 2 0 17 -8 33 -17z m-818 -43 c3 -11 1 -18 -4 -14 -5 3 -9 12 -9
20 0 20 7 17 13 -6z m704 -36 c-3 -3 -12 -4 -19 -1 -8 3 -5 6 6 6 11 1 17 -2
13 -5z m93 -7 c0 -20 -43 -37 -111 -44 -44 -4 -59 -3 -59 7 0 6 10 15 23 18
22 6 22 6 -3 14 -17 5 -12 6 15 2 22 -3 52 -1 65 5 36 14 70 13 70 -2z m-770
-22 c13 -14 22 -26 19 -28 -2 -1 -16 10 -31 25 -15 15 -23 28 -19 28 4 0 18
-11 31 -25z m395 10 c147 1 186 -1 145 -8 -70 -11 -415 -2 -455 11 -23 9 -15
9 40 4 39 -4 160 -7 270 -7z m-495 -48 c0 -2 -10 -12 -22 -23 l-23 -19 19 23
c18 21 26 27 26 19z m1039 -95 l-1 -37 -8 37 c-4 21 -14 46 -22 55 -30 35 -29
47 1 15 24 -25 31 -41 30 -70z m-960 -120 c0 -12 -3 -9 -10 8 -6 14 -18 34
-27 45 -9 12 -5 8 11 -7 15 -16 27 -36 26 -46z m614 36 c-20 -34 -96 -98 -116
-98 -7 0 2 9 19 19 17 11 49 40 70 65 45 54 53 58 27 14z m117 -80 c0 -14 -30
-48 -43 -48 -5 0 1 9 14 20 28 23 13 27 -19 4 -12 -8 -19 -20 -16 -26 4 -7 2
-8 -5 -4 -9 6 -9 12 1 24 30 38 68 55 68 30z m-628 -75 c10 -9 18 -20 18 -25
0 -4 -9 1 -20 12 -32 32 -56 22 -27 -10 10 -12 9 -12 -5 -1 -10 7 -18 20 -18
27 0 19 30 18 52 -3z m648 -65 c0 -5 -7 -7 -16 -4 -9 4 -23 1 -31 -5 -7 -7
-16 -9 -19 -6 -7 7 49 37 58 30 5 -2 8 -9 8 -15z m-223 -39 c4 3 0 -4 -10 -15
-26 -31 -117 -42 -117 -13 0 17 55 35 87 28 18 -4 36 -4 40 0z m-469 -19 c17
-11 32 -25 31 -32 0 -8 -2 -9 -5 -2 -3 6 -17 10 -32 8 -27 -4 -27 -4 -2 4 23
7 21 9 -22 20 -56 14 -58 14 -58 3 0 -5 8 -12 18 -14 15 -4 15 -5 0 -6 -19 -1
-32 14 -23 29 10 16 58 11 93 -10z m47 -90 c-3 -5 -12 -10 -18 -10 -7 0 -6 4
3 10 19 12 23 12 15 0z m582 4 c-3 -3 -12 -4 -19 -1 -8 3 -5 6 6 6 11 1 17 -2
13 -5z m-504 -21 c-13 -2 -33 -2 -45 0 -13 2 -3 4 22 4 25 0 35 -2 23 -4z
m144 1 c-3 -3 -12 -4 -19 -1 -8 3 -5 6 6 6 11 1 17 -2 13 -5z m178 -24 c-3 -5
-12 -10 -18 -10 -7 0 -6 4 3 10 19 12 23 12 15 0z"/>
<path d="M1276 2188 c-11 -43 -7 -58 15 -58 19 0 21 4 15 31 -3 17 -6 35 -6
40 0 18 -18 8 -24 -13z"/>
<path d="M1184 1915 c3 -9 6 -23 6 -32 0 -9 8 -13 23 -11 16 2 22 10 22 28 0
20 -6 26 -29 28 -23 3 -28 0 -22 -13z"/>
<path d="M1721 1832 c-12 -29 -12 -35 0 -43 15 -9 23 13 17 54 -3 20 -5 18
-17 -11z"/>
<path d="M898 1683 c6 -2 18 -2 25 0 6 3 1 5 -13 5 -14 0 -19 -2 -12 -5z"/>
<path d="M1242 1108 c-17 -17 12 -63 52 -82 67 -32 153 -10 182 47 20 38 4 50
-42 31 -43 -18 -105 -18 -148 0 -24 10 -37 11 -44 4z m124 -67 c-5 -8 -56 -3
-56 5 0 2 14 4 31 4 16 0 28 -4 25 -9z"/>
</g>
</svg>
