<svg xmlns="http://www.w3.org/2000/svg" width="256" height="256" viewBox="0 0 256 256">
<g>
<path d="M 144.42 230.05 C140.64,232.39 132.69,232.56 126.00,230.45 C123.42,229.63 117.34,229.02 111.72,229.02 C100.41,229.00 95.40,227.45 94.45,223.67 C94.02,221.94 92.93,221.04 90.73,220.60 C86.57,219.76 84.00,217.26 84.00,214.05 C84.00,210.22 85.76,209.00 91.27,209.00 L 96.14 209.00 L 93.94 205.92 C92.14,203.38 91.94,202.42 92.84,200.45 C94.20,197.46 98.35,196.32 101.57,198.04 C102.89,198.75 104.92,201.28 106.08,203.66 C107.23,206.05 108.70,207.99 109.34,207.97 C109.98,207.96 112.05,206.66 113.95,205.09 L 117.40 202.23 L 112.22 200.00 C105.98,197.31 99.95,191.05 97.54,184.75 C96.12,181.03 95.18,179.98 92.81,179.46 C88.69,178.55 88.34,179.42 91.38,183.03 C95.02,187.36 94.96,192.33 91.25,194.72 C89.74,195.69 87.68,197.50 86.68,198.74 C85.30,200.45 83.81,201.00 80.56,201.00 C71.94,201.00 67.36,193.30 70.43,183.93 C71.29,181.29 72.00,178.53 72.00,177.80 C72.00,177.07 72.91,174.78 74.02,172.70 C75.54,169.86 75.79,168.47 75.02,167.03 C71.99,161.37 75.21,154.29 83.22,149.05 C88.30,145.73 88.41,144.94 84.28,141.66 C80.68,138.80 79.00,134.61 79.00,128.45 C79.00,121.96 81.09,116.81 84.88,113.99 C88.35,111.40 88.48,111.27 92.77,105.61 L 96.48 100.73 L 93.99 99.11 C92.62,98.23 89.65,95.81 87.39,93.75 C83.80,90.48 82.65,90.00 78.35,90.00 C75.40,90.00 71.85,90.80 69.50,92.00 C62.51,95.57 60.87,94.61 58.13,85.38 C56.51,79.92 55.58,78.78 51.81,77.63 C50.87,77.34 49.56,75.26 48.88,73.00 C47.78,69.32 47.85,68.71 49.58,67.04 C52.57,64.15 73.30,59.19 91.41,57.04 C99.56,56.07 101.36,54.99 100.57,51.50 C100.32,50.40 99.80,44.49 99.42,38.36 C98.63,25.68 99.01,25.00 106.81,25.00 C111.85,25.00 112.85,26.31 113.65,33.89 C114.00,37.29 114.73,39.92 115.27,39.74 C115.81,39.56 117.26,36.63 118.50,33.22 C119.73,29.80 121.31,26.34 121.99,25.51 C123.38,23.84 133.49,23.39 135.85,24.89 C136.60,25.36 138.20,28.81 139.41,32.56 C141.99,40.50 143.63,41.72 144.49,36.31 C145.92,27.23 146.32,26.52 150.09,26.20 C152.03,26.04 154.83,26.36 156.31,26.93 C159.50,28.14 159.60,29.40 157.81,44.87 C156.67,54.74 156.71,55.31 158.56,56.59 C162.45,59.28 163.00,60.14 163.00,63.54 C163.00,67.95 164.25,67.93 166.88,63.48 C169.54,58.96 170.80,58.54 176.66,60.20 C180.57,61.31 181.65,62.11 182.45,64.53 C182.98,66.16 183.53,67.66 183.66,67.86 C183.79,68.06 185.98,67.22 188.54,65.98 C192.58,64.03 193.66,63.88 196.95,64.87 C204.83,67.23 207.88,71.92 204.47,76.44 C203.61,77.58 203.00,80.57 203.00,83.68 C203.00,88.04 202.52,89.51 200.25,92.05 C196.51,96.23 190.89,97.00 185.21,94.11 C182.94,92.95 180.04,92.00 178.76,92.00 C177.49,92.00 175.38,91.25 174.08,90.34 C172.67,89.36 170.04,88.75 167.62,88.84 C162.69,89.04 151.94,87.19 150.36,85.88 C148.69,84.50 136.79,84.51 134.20,85.89 C131.17,87.51 131.44,89.84 134.75,90.57 C145.92,93.04 153.84,97.43 159.09,104.06 C160.97,106.43 165.18,110.93 168.45,114.07 C174.34,119.73 174.39,119.84 174.80,126.23 C175.25,133.34 174.04,136.78 169.60,140.92 C166.05,144.24 166.27,146.78 170.25,148.53 C175.91,151.03 181.00,156.67 181.00,160.43 C181.00,161.64 182.77,164.32 184.98,166.48 C189.49,170.89 191.46,175.65 190.52,179.90 C189.43,184.85 187.34,185.92 179.49,185.49 C173.10,185.15 172.27,184.85 169.87,181.99 C167.34,178.98 167.08,178.90 163.15,179.96 C159.69,180.89 158.77,181.73 157.13,185.44 C154.78,190.76 148.22,197.32 142.92,199.66 C140.76,200.61 139.00,201.71 139.00,202.11 C139.00,202.51 140.59,203.82 142.52,205.01 C144.46,206.21 146.72,208.50 147.55,210.10 C148.38,211.69 149.39,213.00 149.80,213.00 C151.21,213.00 154.98,209.91 156.08,207.85 C157.10,205.94 156.97,205.85 154.09,206.48 C151.25,207.10 151.00,206.95 151.00,204.54 C151.00,198.53 157.74,190.00 162.48,190.00 C165.04,190.00 168.00,192.88 168.00,195.37 C168.00,196.32 166.83,198.26 165.41,199.68 C163.38,201.71 163.11,202.46 164.16,203.12 C164.90,203.59 166.07,203.98 166.77,203.98 C167.47,203.99 168.55,205.12 169.18,206.50 C170.12,208.55 170.00,209.34 168.53,210.97 C167.54,212.06 165.90,213.22 164.87,213.54 C162.21,214.39 162.57,215.28 166.27,217.00 C168.12,217.86 169.63,219.38 169.79,220.56 C170.34,224.36 166.78,226.18 156.82,227.18 C150.73,227.79 146.49,228.77 144.42,230.05 ZM 133.74 228.94 C136.05,230.32 139.28,229.51 144.05,226.35 C147.07,224.35 148.79,223.89 151.72,224.27 C155.73,224.79 164.90,223.35 166.39,221.96 C167.58,220.84 164.63,218.00 162.27,218.00 C159.42,218.00 157.91,216.04 159.08,213.85 C159.63,212.83 160.76,212.00 161.59,212.00 C162.43,212.00 162.84,211.55 162.50,211.00 C162.16,210.45 162.78,210.00 163.88,210.00 C166.29,210.00 167.61,208.21 166.23,206.83 C165.56,206.16 164.14,206.39 161.97,207.52 C158.56,209.28 153.32,213.98 154.70,214.03 C155.14,214.05 154.65,214.71 153.60,215.50 C151.94,216.76 151.35,216.73 148.85,215.25 C147.28,214.33 146.00,213.07 146.00,212.46 C146.00,210.57 141.25,206.73 139.92,207.55 C139.18,208.01 138.95,207.89 139.33,207.27 C139.69,206.70 139.31,205.67 138.49,204.99 C136.22,203.11 136.71,200.09 139.47,198.83 C140.83,198.21 141.70,197.33 141.42,196.87 C141.13,196.40 141.67,196.32 142.61,196.68 C143.69,197.10 144.09,196.95 143.67,196.28 C143.30,195.68 143.77,195.28 144.76,195.36 C145.72,195.44 146.38,194.91 146.23,194.18 C146.07,193.45 146.34,193.09 146.82,193.39 C148.48,194.41 156.72,183.98 155.64,182.23 C155.35,181.75 155.96,180.75 157.00,180.00 C158.04,179.25 158.63,178.20 158.30,177.67 C157.95,177.10 158.80,176.92 160.38,177.22 C161.85,177.50 163.31,177.31 163.63,176.80 C163.94,176.28 164.94,176.16 165.85,176.52 C166.76,176.88 168.40,177.35 169.50,177.58 C170.59,177.80 171.61,178.32 171.76,178.74 C172.80,181.67 173.93,182.19 177.82,181.53 C180.37,181.10 182.05,180.22 182.33,179.17 C182.64,177.98 182.80,178.12 182.88,179.69 C183.02,182.24 184.23,183.23 186.25,182.46 C187.21,182.09 187.70,180.31 187.73,177.05 C187.78,172.69 187.38,171.80 183.87,168.37 C181.72,166.27 179.52,162.91 178.98,160.91 C177.82,156.64 173.82,152.28 169.27,150.35 C164.47,148.33 164.00,144.90 167.91,140.44 C169.64,138.48 170.78,136.46 170.46,135.94 C170.14,135.42 170.28,135.00 170.78,135.00 C172.35,135.00 172.18,123.67 170.54,119.75 C169.02,116.12 163.97,112.36 162.54,113.79 C162.15,114.18 161.97,114.05 162.13,113.50 C162.73,111.45 158.60,104.80 155.11,102.20 C153.12,100.72 151.27,99.28 151.00,99.00 C149.53,97.48 142.71,94.63 137.00,93.14 C131.21,91.63 130.50,91.18 130.50,88.97 C130.50,83.58 143.50,80.81 152.08,84.38 C156.56,86.25 162.46,87.25 167.85,87.05 C170.51,86.96 173.21,87.57 174.83,88.63 C176.28,89.58 179.05,90.70 180.99,91.12 C182.92,91.54 186.38,92.45 188.69,93.13 C195.96,95.30 201.29,90.90 201.18,82.83 C201.15,80.54 201.77,77.41 202.56,75.88 C203.35,74.35 203.99,72.51 203.97,71.80 C203.92,69.74 199.20,66.84 195.00,66.27 C191.60,65.82 190.72,66.18 187.42,69.38 C183.12,73.55 181.00,72.93 181.00,67.50 C181.00,63.88 178.85,61.46 176.46,62.38 C175.50,62.75 175.15,62.57 175.55,61.91 C175.98,61.23 175.19,60.96 173.36,61.17 C171.07,61.43 169.94,62.55 167.69,66.75 C165.82,70.24 164.24,72.00 162.98,72.00 C161.37,72.00 161.05,71.11 160.80,65.75 C160.63,62.31 160.15,59.63 159.71,59.79 C159.28,59.94 158.35,59.49 157.65,58.79 C154.99,56.11 154.28,53.72 155.07,50.12 C155.50,48.13 156.00,42.45 156.18,37.50 L 156.50 28.50 L 152.33 28.20 C147.64,27.85 147.59,27.92 146.46,37.00 C145.14,47.57 142.12,48.51 139.51,39.16 C136.69,29.06 134.99,26.01 132.10,25.89 C127.33,25.69 124.51,26.15 123.37,27.33 C122.75,27.97 121.05,31.87 119.59,35.99 C118.14,40.11 116.33,44.10 115.58,44.85 C113.90,46.53 113.42,45.31 111.65,34.75 L 110.44 27.50 L 101.50 27.50 L 101.82 38.00 C102.00,43.78 102.29,49.89 102.48,51.59 C102.66,53.30 102.46,55.26 102.03,55.96 C101.12,57.42 94.39,58.89 88.31,58.96 C86.00,58.98 83.84,59.45 83.50,60.00 C83.16,60.55 81.03,61.00 78.76,61.00 C76.50,61.00 73.26,61.42 71.57,61.94 C69.88,62.46 65.85,63.41 62.61,64.05 C58.32,64.89 57.10,65.47 58.11,66.17 C59.13,66.87 58.93,66.97 57.38,66.54 C54.15,65.64 50.00,67.60 50.00,70.03 C50.00,71.18 50.37,71.89 50.82,71.61 C51.28,71.33 51.61,72.06 51.57,73.24 C51.52,74.83 52.35,75.64 54.75,76.34 C57.44,77.13 58.18,78.00 59.05,81.39 C61.86,92.34 62.88,93.30 68.63,90.33 C71.01,89.10 74.69,88.28 78.20,88.20 C83.57,88.07 84.15,88.30 88.20,92.12 C90.57,94.35 93.52,96.58 94.78,97.07 C97.99,98.34 98.58,100.73 96.31,103.30 C95.25,104.51 93.29,107.61 91.97,110.19 C90.65,112.77 88.52,115.35 87.23,115.94 C81.96,118.34 80.24,132.18 84.58,137.26 C87.44,140.60 89.00,143.72 89.00,146.08 C89.00,147.23 90.01,149.07 91.25,150.15 L 93.50 152.12 L 90.75 150.44 C89.06,149.42 88.00,149.20 88.00,149.88 C88.00,150.50 87.39,151.00 86.64,151.00 C84.55,151.00 79.21,156.16 78.05,159.29 C77.13,161.79 77.36,167.32 78.54,170.80 C78.78,171.52 78.53,171.83 77.99,171.49 C76.99,170.88 76.77,171.63 76.74,175.75 C76.73,176.99 76.11,178.00 75.36,178.00 C74.61,178.00 73.98,178.56 73.95,179.25 C73.92,179.94 73.65,183.10 73.35,186.28 C72.77,192.49 74.55,197.00 77.58,197.00 C78.43,197.00 78.84,197.45 78.50,198.00 C78.14,198.58 79.08,199.00 80.72,199.00 C82.61,199.00 84.42,198.01 86.15,196.04 C87.58,194.41 88.50,192.84 88.21,192.54 C87.91,192.24 88.42,192.00 89.33,192.00 C90.91,192.00 91.51,190.74 91.01,188.50 C90.89,187.95 90.70,186.95 90.59,186.27 C90.48,185.60 89.36,183.95 88.10,182.61 C86.14,180.52 85.36,176.32 87.10,177.20 C87.42,177.36 88.35,176.95 89.16,176.29 C90.15,175.46 91.55,175.35 93.56,175.95 C95.18,176.43 96.08,176.87 95.56,176.91 C95.04,176.96 95.49,177.66 96.56,178.47 C98.75,180.13 105.47,180.58 104.50,179.00 C104.15,178.44 104.89,178.03 106.19,178.08 C107.46,178.12 107.96,178.38 107.31,178.64 C106.65,178.91 106.37,179.81 106.69,180.64 C107.17,181.88 106.63,182.02 103.63,181.46 C99.56,180.69 99.40,180.94 101.46,184.92 C102.26,186.48 102.70,187.97 102.43,188.24 C101.44,189.23 107.94,195.15 109.22,194.42 C109.93,194.01 110.16,194.05 109.75,194.50 C108.49,195.90 115.03,199.20 117.89,198.61 C119.33,198.32 119.94,198.32 119.25,198.62 C118.53,198.94 118.24,200.09 118.56,201.37 C118.99,203.08 118.21,204.30 115.06,206.83 C112.84,208.62 110.76,211.12 110.44,212.39 C110.10,213.72 108.38,215.40 106.36,216.37 C104.44,217.28 103.14,217.58 103.49,217.02 C103.84,216.46 103.64,215.94 103.06,215.88 C101.10,215.64 100.51,215.42 97.30,213.71 C93.70,211.79 88.46,211.45 87.45,213.08 C86.28,214.98 90.34,217.75 93.59,217.27 C96.43,216.86 96.59,217.03 96.84,220.64 C96.98,222.73 97.57,224.73 98.14,225.09 C98.72,225.45 104.52,225.56 111.02,225.34 C118.18,225.09 123.08,225.33 123.45,225.92 C123.79,226.47 124.72,226.66 125.53,226.35 C126.34,226.04 127.00,226.33 127.00,227.00 C127.00,227.67 127.67,227.96 128.50,227.64 C129.32,227.32 130.00,227.53 130.00,228.09 C130.00,228.66 130.45,228.84 130.99,228.50 C131.54,228.17 132.78,228.36 133.74,228.94 ZM 146.00 182.05 C140.10,183.10 114.35,183.00 110.50,181.92 C108.59,181.38 111.51,181.22 118.50,181.49 C124.55,181.73 131.52,181.46 134.00,180.90 C143.24,178.80 144.31,178.69 143.58,179.87 C143.11,180.63 144.13,181.04 146.69,181.13 L 150.50 181.25 ZM 120.15 89.56 C118.86,92.40 118.20,92.53 115.35,90.53 C110.80,87.35 111.96,84.00 117.61,84.00 C120.60,84.00 121.64,86.29 120.15,89.56 ZM 155.00 200.37 C155.00,201.70 155.55,201.66 159.07,200.08 C161.31,199.08 163.62,197.78 164.20,197.20 C165.62,195.78 164.47,193.00 162.45,193.00 C160.41,193.00 155.00,198.35 155.00,200.37 ZM 98.75 205.43 C100.26,206.25 102.28,206.94 103.23,206.96 C104.74,207.00 104.81,206.66 103.75,204.25 C102.27,200.89 101.16,200.04 98.25,200.02 C94.98,199.99 95.31,203.56 98.75,205.43 ZM 130.53 203.00 C129.28,203.00 126.84,203.28 125.12,203.62 C122.03,204.24 120.77,202.88 123.11,201.43 C123.89,200.95 123.86,200.53 122.98,199.99 C122.30,199.57 124.03,199.26 126.81,199.30 C130.81,199.36 131.96,199.76 132.34,201.19 C132.69,202.55 132.24,203.00 130.53,203.00 ZM 116.20 88.80 C117.96,90.56 119.00,90.27 119.00,88.00 C119.00,86.67 118.33,86.00 117.00,86.00 C114.73,86.00 114.44,87.04 116.20,88.80 ZM 102.25 213.35 C104.04,214.09 106.07,213.66 106.30,212.50 C106.41,211.95 105.26,211.36 103.75,211.18 C100.98,210.86 99.93,212.39 102.25,213.35 ZM 145.00 211.65 C145.00,212.46 144.20,211.86 142.40,209.75 L 140.50 207.50 L 142.75 209.40 C143.99,210.45 145.00,211.47 145.00,211.65 Z" fill="rgb(2,56,120)"/>
<path d="M 0.00 0.00 L 256.00 0.00 L 256.00 256.00 L 0.00 256.00 ZM 144.42 230.05 C146.49,228.77 150.73,227.79 156.82,227.18 C166.78,226.18 170.34,224.36 169.79,220.56 C169.63,219.38 168.12,217.86 166.27,217.00 C162.57,215.28 162.21,214.39 164.87,213.54 C165.90,213.22 167.54,212.06 168.53,210.97 C170.00,209.34 170.12,208.55 169.18,206.50 C168.55,205.12 167.47,203.99 166.77,203.98 C166.07,203.98 164.90,203.59 164.16,203.12 C163.11,202.46 163.38,201.71 165.41,199.68 C166.83,198.26 168.00,196.32 168.00,195.37 C168.00,192.88 165.04,190.00 162.48,190.00 C157.74,190.00 151.00,198.53 151.00,204.54 C151.00,206.95 151.25,207.10 154.09,206.48 C156.97,205.85 157.10,205.94 156.08,207.85 C154.98,209.91 151.21,213.00 149.80,213.00 C149.39,213.00 148.38,211.69 147.55,210.10 C146.72,208.50 144.46,206.21 142.52,205.01 C140.59,203.82 139.00,202.51 139.00,202.11 C139.00,201.71 140.76,200.61 142.92,199.66 C148.22,197.32 154.78,190.76 157.13,185.44 C158.77,181.73 159.69,180.89 163.15,179.96 C167.08,178.90 167.34,178.98 169.87,181.99 C172.27,184.85 173.10,185.15 179.49,185.49 C187.34,185.92 189.43,184.85 190.52,179.90 C191.46,175.65 189.49,170.89 184.98,166.48 C182.77,164.32 181.00,161.64 181.00,160.43 C181.00,156.67 175.91,151.03 170.25,148.53 C166.27,146.78 166.05,144.24 169.60,140.92 C174.04,136.78 175.25,133.34 174.80,126.23 C174.39,119.84 174.34,119.73 168.45,114.07 C165.18,110.93 160.97,106.43 159.09,104.06 C153.84,97.43 145.92,93.04 134.75,90.57 C131.44,89.84 131.17,87.51 134.20,85.89 C136.79,84.51 148.69,84.50 150.36,85.88 C151.94,87.19 162.69,89.04 167.62,88.84 C170.04,88.75 172.67,89.36 174.08,90.34 C175.38,91.25 177.49,92.00 178.76,92.00 C180.04,92.00 182.94,92.95 185.21,94.11 C190.89,97.00 196.51,96.23 200.25,92.05 C202.52,89.51 203.00,88.04 203.00,83.68 C203.00,80.57 203.61,77.58 204.47,76.44 C207.88,71.92 204.83,67.23 196.95,64.87 C193.66,63.88 192.58,64.03 188.54,65.98 C185.98,67.22 183.79,68.06 183.66,67.86 C183.53,67.66 182.98,66.16 182.45,64.53 C181.65,62.11 180.57,61.31 176.66,60.20 C170.80,58.54 169.54,58.96 166.88,63.48 C164.25,67.93 163.00,67.95 163.00,63.54 C163.00,60.14 162.45,59.28 158.56,56.59 C156.71,55.31 156.67,54.74 157.81,44.87 C159.60,29.40 159.50,28.14 156.31,26.93 C154.83,26.36 152.03,26.04 150.09,26.20 C146.32,26.52 145.92,27.23 144.49,36.31 C143.63,41.72 141.99,40.50 139.41,32.56 C138.20,28.81 136.60,25.36 135.85,24.89 C133.49,23.39 123.38,23.84 121.99,25.51 C121.31,26.34 119.73,29.80 118.50,33.22 C117.26,36.63 115.81,39.56 115.27,39.74 C114.73,39.92 114.00,37.29 113.65,33.89 C112.85,26.31 111.85,25.00 106.81,25.00 C99.01,25.00 98.63,25.68 99.42,38.36 C99.80,44.49 100.32,50.40 100.57,51.50 C101.36,54.99 99.56,56.07 91.41,57.04 C73.30,59.19 52.57,64.15 49.58,67.04 C47.85,68.71 47.78,69.32 48.88,73.00 C49.56,75.26 50.87,77.34 51.81,77.63 C55.58,78.78 56.51,79.92 58.13,85.38 C60.87,94.61 62.51,95.57 69.50,92.00 C71.85,90.80 75.40,90.00 78.35,90.00 C82.65,90.00 83.80,90.48 87.39,93.75 C89.65,95.81 92.62,98.23 93.99,99.11 L 96.48 100.73 L 92.77 105.61 C88.48,111.27 88.35,111.40 84.88,113.99 C81.09,116.81 79.00,121.96 79.00,128.45 C79.00,134.61 80.68,138.80 84.28,141.66 C88.41,144.94 88.30,145.73 83.22,149.05 C75.21,154.29 71.99,161.37 75.02,167.03 C75.79,168.47 75.54,169.86 74.02,172.70 C72.91,174.78 72.00,177.07 72.00,177.80 C72.00,178.53 71.29,181.29 70.43,183.93 C67.36,193.30 71.94,201.00 80.56,201.00 C83.81,201.00 85.30,200.45 86.68,198.74 C87.68,197.50 89.74,195.69 91.25,194.72 C94.96,192.33 95.02,187.36 91.38,183.03 C88.34,179.42 88.69,178.55 92.81,179.46 C95.18,179.98 96.12,181.03 97.54,184.75 C99.95,191.05 105.98,197.31 112.22,200.00 L 117.40 202.23 L 113.95 205.09 C112.05,206.66 109.98,207.96 109.34,207.97 C108.70,207.99 107.23,206.05 106.08,203.66 C104.92,201.28 102.89,198.75 101.57,198.04 C98.35,196.32 94.20,197.46 92.84,200.45 C91.94,202.42 92.14,203.38 93.94,205.92 L 96.14 209.00 L 91.27 209.00 C85.76,209.00 84.00,210.22 84.00,214.05 C84.00,217.26 86.57,219.76 90.73,220.60 C92.93,221.04 94.02,221.94 94.45,223.67 C95.40,227.45 100.41,229.00 111.72,229.02 C117.34,229.02 123.42,229.63 126.00,230.45 C132.69,232.56 140.64,232.39 144.42,230.05 ZM 116.20 88.80 C114.44,87.04 114.73,86.00 117.00,86.00 C118.33,86.00 119.00,86.67 119.00,88.00 C119.00,90.27 117.96,90.56 116.20,88.80 ZM 102.25 213.35 C99.93,212.39 100.98,210.86 103.75,211.18 C105.26,211.36 106.41,211.95 106.30,212.50 C106.07,213.66 104.04,214.09 102.25,213.35 Z" fill="rgb(1,69,143)"/>
<path d="M 85.89 138.19 C89.34,141.28 90.21,141.49 93.06,139.97 C98.27,137.18 99.81,124.99 95.72,118.90 C93.30,115.30 90.40,114.42 87.90,115.52 C89.18,114.53 90.86,112.36 91.97,110.19 C93.29,107.61 95.25,104.51 96.31,103.30 C98.58,100.73 97.99,98.34 94.78,97.07 C93.52,96.58 90.57,94.35 88.20,92.12 C84.15,88.30 83.57,88.07 78.20,88.20 C74.69,88.28 71.01,89.10 68.63,90.33 C62.88,93.30 61.86,92.34 59.05,81.39 C58.18,78.00 57.44,77.13 54.75,76.34 C52.35,75.64 51.52,74.83 51.57,73.24 C51.61,72.06 51.28,71.33 50.82,71.61 C50.37,71.89 50.00,71.18 50.00,70.03 C50.00,67.60 54.15,65.64 57.38,66.54 C57.70,66.63 57.96,66.69 58.16,66.74 C54.75,67.73 51.80,68.80 51.88,69.25 C51.94,69.66 52.00,70.96 52.00,72.13 C52.00,73.98 52.43,74.19 55.30,73.73 L 58.61 73.19 L 60.43 80.34 C61.43,84.28 62.69,88.06 63.24,88.74 C63.78,89.42 64.51,89.83 64.86,89.64 C65.21,89.46 66.25,89.04 67.17,88.72 C68.71,88.17 68.69,87.58 66.93,80.81 L 66.90 80.68 C65.27,74.42 64.78,72.51 65.52,71.53 C65.84,71.10 66.42,70.85 67.25,70.48 C69.39,69.53 69.87,66.58 68.17,64.81 C67.72,64.34 62.93,65.38 58.65,66.60 C58.56,66.49 58.37,66.35 58.11,66.17 C57.10,65.47 58.32,64.89 62.61,64.05 C65.85,63.41 69.88,62.46 71.57,61.94 C73.26,61.42 76.50,61.00 78.76,61.00 C81.03,61.00 83.16,60.55 83.50,60.00 C83.84,59.45 86.00,58.98 88.31,58.96 C94.39,58.89 101.12,57.42 102.03,55.96 C102.46,55.26 102.66,53.30 102.48,51.59 C102.29,49.89 102.00,43.78 101.82,38.00 L 101.50 27.50 L 110.44 27.50 L 111.65 34.75 C113.42,45.31 113.90,46.53 115.58,44.85 C116.33,44.10 118.14,40.11 119.59,35.99 C121.05,31.87 122.75,27.97 123.37,27.33 C124.51,26.15 127.33,25.69 132.10,25.89 C134.99,26.01 136.69,29.06 139.51,39.16 C142.12,48.51 145.14,47.57 146.46,37.00 C147.59,27.92 147.64,27.85 152.33,28.20 L 156.50 28.50 L 156.18 37.50 C156.00,42.45 155.50,48.13 155.07,50.12 C154.28,53.72 154.99,56.11 157.65,58.79 C158.35,59.49 159.28,59.94 159.71,59.79 C160.15,59.63 160.63,62.31 160.80,65.75 C161.05,71.11 161.37,72.00 162.98,72.00 C164.24,72.00 165.82,70.24 167.69,66.75 C169.94,62.55 171.07,61.43 173.36,61.17 C175.19,60.96 175.98,61.23 175.55,61.91 C175.15,62.57 175.50,62.75 176.46,62.38 C178.85,61.46 181.00,63.88 181.00,67.50 C181.00,72.93 183.12,73.55 187.42,69.38 C190.72,66.18 191.60,65.82 195.00,66.27 C199.20,66.84 203.92,69.74 203.97,71.80 C203.99,72.51 203.35,74.35 202.56,75.88 C201.77,77.41 201.15,80.54 201.18,82.83 C201.29,90.90 195.96,95.30 188.69,93.13 C186.38,92.45 182.92,91.54 180.99,91.12 C179.05,90.70 176.28,89.58 174.83,88.63 C173.21,87.57 170.51,86.96 167.85,87.05 C162.46,87.25 156.56,86.25 152.08,84.38 C143.50,80.81 130.50,83.58 130.50,88.97 C130.50,91.18 131.21,91.63 137.00,93.14 C142.71,94.63 149.53,97.48 151.00,99.00 C151.27,99.28 153.12,100.72 155.11,102.20 C158.53,104.75 162.57,111.20 162.16,113.38 C161.85,113.03 161.53,112.68 161.20,112.35 L 158.10 109.26 L 138.26 108.53 C115.72,107.71 111.59,108.32 107.57,113.10 C105.39,115.69 105.00,117.13 105.00,122.62 C105.00,132.39 108.30,137.65 115.97,140.10 C117.36,140.54 127.36,140.81 138.18,140.70 C156.33,140.52 158.08,140.34 160.68,138.43 C168.33,132.81 169.00,121.66 162.52,113.81 C162.53,113.80 162.54,113.80 162.54,113.79 C163.97,112.36 169.02,116.12 170.54,119.75 C170.65,120.02 170.76,120.33 170.86,120.67 C169.63,117.88 167.32,116.78 168.39,119.58 C168.73,120.45 169.00,124.74 169.00,129.12 C169.00,135.72 169.23,136.87 170.34,135.83 C170.35,135.82 170.37,135.80 170.38,135.79 C170.40,135.84 170.43,135.89 170.46,135.94 C170.78,136.46 169.64,138.48 167.91,140.44 C164.00,144.90 164.47,148.33 169.27,150.35 C173.82,152.28 177.82,156.64 178.98,160.91 C179.52,162.91 181.72,166.27 183.87,168.37 C187.35,171.77 187.77,172.68 187.74,176.94 C187.13,173.49 184.09,168.64 181.96,168.24 C179.63,167.80 171.74,177.62 172.50,180.01 C172.64,180.43 172.84,180.78 173.08,181.06 C172.54,180.57 172.15,179.82 171.76,178.74 C171.61,178.32 170.59,177.80 169.50,177.58 C168.40,177.35 166.76,176.88 165.85,176.52 C165.58,176.41 165.30,176.35 165.03,176.32 C166.10,175.95 167.45,175.46 169.25,174.78 C170.77,174.22 173.36,172.22 175.00,170.34 C180.78,163.76 178.17,155.64 168.94,151.47 L 164.75 149.59 L 162.84 151.94 C160.67,154.63 160.92,156.57 163.41,156.35 C164.49,156.26 164.99,156.81 164.79,157.85 C164.10,161.49 140.23,164.62 121.14,163.57 C102.41,162.54 91.00,160.17 91.00,157.32 C91.00,156.38 91.57,156.01 92.47,156.35 C95.13,157.37 95.29,154.84 92.72,152.26 C90.64,150.18 89.90,149.90 87.65,150.63 C87.87,150.43 88.00,150.17 88.00,149.88 C88.00,149.20 89.06,149.42 90.75,150.44 L 93.50 152.12 L 91.25 150.15 C90.01,149.07 89.00,147.23 89.00,146.08 C89.00,143.72 87.44,140.60 84.58,137.26 C82.73,135.09 81.98,131.34 82.14,127.55 C82.13,128.44 82.16,129.36 82.26,130.31 C82.65,134.40 83.35,135.92 85.89,138.19 ZM 159.06 135.97 C157.91,136.58 148.61,137.00 136.08,137.00 L 115.03 137.00 L 111.82 134.13 C108.94,131.56 108.57,130.58 108.19,124.67 C107.79,118.40 107.92,117.92 110.81,115.04 L 113.85 112.00 L 134.67 112.01 C157.71,112.03 159.14,112.34 162.14,117.98 C165.44,124.18 163.86,133.40 159.06,135.97 ZM 114.33 160.15 C122.84,160.82 143.11,160.33 148.11,159.33 C152.40,158.47 159.95,151.29 162.63,145.54 C165.77,138.80 165.70,137.30 162.37,139.93 C159.87,141.89 158.49,142.00 136.12,142.00 C108.86,141.99 107.49,141.63 103.87,133.45 C101.85,128.88 100.00,128.34 100.00,132.31 C99.99,135.44 96.44,140.84 93.50,142.18 C92.13,142.81 91.00,143.66 91.00,144.08 C91.00,145.83 97.87,153.67 101.86,156.47 C105.48,159.02 107.44,159.60 114.33,160.15 ZM 97.47 116.60 C99.62,119.88 102.16,119.32 103.19,115.33 C104.20,111.45 108.95,107.28 113.28,106.49 C115.05,106.16 125.39,106.03 136.25,106.20 C149.10,106.39 155.89,106.15 155.69,105.50 C155.15,103.77 146.20,98.22 140.54,96.10 C134.51,93.85 123.52,92.40 119.69,93.36 C118.23,93.73 117.28,94.65 117.36,95.61 C117.51,97.37 108.76,100.81 103.83,100.93 C101.90,100.98 99.88,102.46 96.58,106.23 C94.06,109.11 92.00,111.78 92.00,112.17 C92.00,112.55 92.86,113.14 93.91,113.47 C94.96,113.81 96.56,115.21 97.47,116.60 ZM 146.00 182.05 L 150.50 181.25 L 146.69 181.13 C144.13,181.04 143.11,180.63 143.58,179.87 C144.31,178.69 143.24,178.80 134.00,180.90 C131.52,181.46 124.55,181.73 118.50,181.49 C111.51,181.22 108.59,181.38 110.50,181.92 C111.94,182.32 116.43,182.59 121.80,182.71 C116.71,182.65 112.24,182.47 109.57,182.13 C108.41,181.99 107.30,181.87 106.26,181.76 C106.90,181.69 106.96,181.34 106.69,180.64 C106.37,179.81 106.65,178.91 107.31,178.64 C107.38,178.61 107.45,178.58 107.49,178.55 C120.92,180.45 133.82,180.24 158.30,177.68 C158.62,178.22 158.03,179.26 157.00,180.00 C155.96,180.75 155.35,181.75 155.64,182.23 C156.72,183.98 148.48,194.41 146.82,193.39 C146.34,193.09 146.07,193.45 146.23,194.18 C146.38,194.91 145.72,195.44 144.76,195.36 C143.77,195.28 143.30,195.68 143.67,196.28 C144.09,196.95 143.69,197.10 142.61,196.68 C141.67,196.32 141.13,196.40 141.42,196.87 C141.70,197.33 140.83,198.21 139.47,198.83 C136.71,200.09 136.22,203.11 138.49,204.99 C139.31,205.67 139.69,206.70 139.33,207.27 C138.95,207.89 139.18,208.01 139.92,207.55 C141.25,206.73 146.00,210.57 146.00,212.46 C146.00,213.07 147.28,214.33 148.85,215.25 C151.35,216.73 151.94,216.76 153.60,215.50 C154.65,214.71 155.14,214.05 154.70,214.03 C153.74,213.99 156.01,211.68 158.63,209.70 C158.54,209.89 158.54,210.07 158.64,210.22 C158.97,210.76 160.73,210.74 162.54,210.40 C162.38,210.56 162.36,210.77 162.50,211.00 C162.84,211.55 162.43,212.00 161.59,212.00 C160.76,212.00 159.63,212.83 159.08,213.85 C157.91,216.04 159.42,218.00 162.27,218.00 C163.69,218.00 165.33,219.03 166.14,220.09 C165.03,219.45 162.80,219.02 159.92,219.02 C154.75,219.00 153.51,218.30 155.13,216.34 C156.88,214.23 155.10,214.75 149.23,218.07 C144.08,220.97 141.25,221.35 143.82,218.78 C145.80,216.80 145.17,212.50 142.51,210.01 C140.10,207.75 139.95,207.73 138.04,209.47 C136.67,210.70 133.83,211.42 128.96,211.77 C122.68,212.22 121.51,212.02 118.77,209.98 L 115.66 207.69 L 113.33 210.40 C110.44,213.76 110.42,214.99 113.20,218.53 L 115.40 221.33 L 111.58 220.71 C109.48,220.37 104.75,218.27 101.07,216.04 C97.39,213.82 94.01,212.45 91.51,212.07 C93.37,212.20 95.53,212.76 97.30,213.71 C100.51,215.42 101.10,215.64 103.06,215.88 C103.64,215.94 103.84,216.46 103.49,217.02 C103.14,217.58 104.44,217.28 106.36,216.37 C108.38,215.40 110.10,213.72 110.44,212.39 C110.76,211.12 112.84,208.62 115.06,206.83 C118.21,204.30 118.99,203.08 118.56,201.37 C118.24,200.09 118.53,198.94 119.25,198.62 C119.94,198.32 119.33,198.32 117.89,198.61 C115.03,199.20 108.49,195.90 109.75,194.50 C110.16,194.05 109.93,194.01 109.22,194.42 C107.94,195.15 101.44,189.23 102.43,188.24 C102.70,187.97 102.26,186.48 101.46,184.92 C100.59,183.24 100.12,182.23 100.16,181.67 C100.23,182.31 101.12,184.24 102.36,186.35 C106.25,193.00 114.09,197.67 124.00,199.27 C124.20,199.30 124.40,199.33 124.60,199.36 C123.20,199.46 122.51,199.70 122.98,199.99 C123.86,200.53 123.89,200.95 123.11,201.43 C120.77,202.88 122.03,204.24 125.12,203.62 C125.54,203.54 125.99,203.46 126.46,203.39 C124.88,203.77 124.12,204.38 124.56,205.10 C125.19,206.12 130.05,206.30 132.42,205.39 C135.16,204.34 134.14,203.00 130.58,203.00 C130.54,203.00 130.51,203.00 130.47,203.00 C130.49,203.00 130.51,203.00 130.53,203.00 C132.24,203.00 132.69,202.55 132.34,201.19 C132.06,200.13 131.35,199.64 129.37,199.43 C137.68,198.74 147.14,194.15 151.53,188.16 C155.80,182.34 155.99,180.53 152.25,181.41 C150.89,181.73 148.26,182.00 144.92,182.21 C145.33,182.16 145.69,182.11 146.00,182.05 ZM 153.67 82.33 C154.03,82.70 155.33,83.00 156.56,83.00 C158.68,83.00 158.81,82.49 159.50,71.95 C159.90,65.87 160.06,60.73 159.86,60.54 C159.66,60.34 157.90,59.88 155.96,59.52 C152.48,58.87 152.37,58.95 150.03,63.93 C148.73,66.72 147.35,69.00 146.97,69.00 C146.60,69.00 145.66,66.64 144.89,63.75 C143.52,58.59 143.42,58.49 139.43,58.20 L 135.37 57.90 L 134.19 66.81 C132.43,79.99 132.52,81.00 135.48,81.00 C137.38,81.00 138.09,80.36 138.53,78.25 C138.84,76.74 139.44,74.15 139.86,72.50 C140.62,69.52 140.63,69.53 142.36,74.66 C145.05,82.65 146.68,82.44 151.35,73.50 L 152.92 70.50 L 152.96 76.08 C152.98,79.15 153.30,81.97 153.67,82.33 ZM 116.25 50.75 C115.41,53.02 122.77,52.31 124.00,50.00 C124.80,48.50 126.09,48.00 129.13,48.00 C132.35,48.00 133.30,48.41 133.71,50.00 C134.10,51.50 135.07,52.00 137.62,52.00 C141.89,52.00 141.89,51.47 137.67,38.00 L 134.37 27.50 L 129.29 27.20 L 124.20 26.90 L 120.45 38.20 C118.39,44.42 116.50,50.06 116.25,50.75 ZM 113.00 77.15 C113.00,80.76 113.19,81.00 116.00,81.00 C118.79,81.00 119.00,80.74 119.04,77.25 L 119.07 73.50 L 121.41 76.35 C123.42,78.81 124.04,79.05 125.87,78.07 C128.26,76.79 128.50,75.90 126.90,74.30 C126.10,73.50 126.37,72.63 127.90,71.10 C130.68,68.32 130.64,63.31 127.83,60.31 C125.96,58.32 124.67,58.00 118.68,58.00 L 111.71 58.00 L 112.35 65.65 C112.71,69.86 113.00,75.03 113.00,77.15 ZM 176.25 87.34 C176.94,87.62 178.35,87.88 179.38,87.92 C181.15,88.00 181.22,87.37 180.53,76.83 C180.14,70.69 179.60,65.11 179.34,64.44 C178.85,63.18 173.13,61.87 171.72,62.70 C171.29,62.95 168.67,67.68 165.89,73.22 C161.95,81.08 161.13,83.47 162.17,84.13 C164.25,85.45 166.73,85.15 167.36,83.50 C168.44,80.68 175.00,81.99 175.00,85.02 C175.00,86.02 175.56,87.06 176.25,87.34 ZM 75.57 84.82 C75.80,85.55 77.01,86.00 78.25,85.82 C80.18,85.55 80.50,84.90 80.50,81.25 C80.50,78.67 80.96,77.00 81.67,77.00 C82.31,77.00 83.52,76.74 84.36,76.42 C85.48,75.98 86.05,76.76 86.55,79.42 C87.23,83.03 88.98,83.94 91.80,82.15 C92.85,81.48 92.79,79.38 91.45,70.91 C90.54,65.19 89.67,60.37 89.52,60.20 C89.36,60.04 88.02,60.21 86.54,60.58 C83.95,61.23 83.87,61.44 84.52,66.13 L 85.19 71.00 L 82.24 71.00 C79.57,71.00 79.19,70.58 78.36,66.75 C77.56,63.06 77.12,62.54 75.03,62.77 C73.71,62.92 72.40,63.26 72.13,63.54 C71.69,63.98 74.53,81.55 75.57,84.82 ZM 96.11 79.75 C96.86,81.77 97.62,82.00 103.48,82.00 L 110.00 82.00 L 110.00 78.93 C110.00,75.95 109.88,75.87 105.85,76.18 C100.55,76.59 99.42,74.39 104.44,73.45 C107.34,72.90 108.00,72.34 108.00,70.39 C108.00,68.34 107.52,68.00 104.61,68.00 C100.64,68.00 98.96,65.51 102.32,64.61 C103.52,64.29 105.51,64.02 106.75,64.01 C108.48,64.00 109.00,63.42 109.00,61.50 C109.00,59.10 108.75,59.00 102.75,59.02 C93.83,59.04 93.71,59.18 94.56,69.11 C94.95,73.72 95.65,78.51 96.11,79.75 ZM 187.25 90.03 C192.85,92.57 194.60,92.49 197.55,89.55 C201.22,85.87 200.84,81.58 196.50,77.73 C194.57,76.03 193.00,74.26 193.00,73.82 C193.00,72.41 196.26,72.93 198.15,74.64 C199.63,75.97 200.24,76.04 201.48,75.02 C203.84,73.06 203.29,71.15 199.75,68.99 C195.42,66.35 192.42,66.49 189.45,69.45 C185.72,73.18 186.18,77.14 190.75,80.83 C193.56,83.10 194.22,84.15 193.36,85.01 C192.51,85.89 191.45,85.77 189.04,84.52 C186.55,83.23 185.54,83.13 184.43,84.06 C181.95,86.11 182.86,88.03 187.25,90.03 ZM 118.11 132.60 C124.32,136.05 132.00,131.66 132.00,124.66 C132.00,118.20 131.70,118.00 121.89,118.00 L 113.00 118.00 L 113.04 122.25 C113.08,127.26 114.80,130.77 118.11,132.60 ZM 145.95 131.25 C152.77,137.34 160.63,132.31 159.82,122.38 L 159.50 118.50 L 152.16 118.20 C143.08,117.84 141.58,118.80 142.33,124.46 C142.71,127.28 143.80,129.33 145.95,131.25 ZM 103.61 45.30 L 104.29 53.10 L 107.89 52.80 L 111.50 52.50 L 111.28 46.50 C111.16,43.20 110.78,37.69 110.45,34.25 L 109.84 28.00 L 101.74 28.00 L 102.34 32.75 C102.67,35.36 103.24,41.01 103.61,45.30 ZM 147.75 53.31 L 147.88 53.34 C149.86,53.86 151.12,54.19 152.01,53.76 C153.55,53.00 153.94,49.88 155.06,41.32 C156.52,30.18 156.14,28.76 151.76,29.19 L 148.50 29.50 L 147.34 38.50 C145.68,51.34 145.72,52.78 147.75,53.31 ZM 96.00 95.05 C99.61,96.97 108.45,97.64 110.78,96.16 C111.70,95.58 111.27,94.99 109.28,94.06 C105.73,92.43 93.27,88.34 90.00,87.73 C88.62,87.48 90.88,87.27 95.00,87.27 C100.71,87.26 101.66,87.44 99.00,88.00 L 95.50 88.74 L 100.00 89.05 C102.47,89.22 105.27,89.36 106.20,89.35 C107.14,89.35 107.67,89.72 107.39,90.18 C107.11,90.63 107.66,91.00 108.61,91.00 C109.56,91.00 111.17,91.74 112.17,92.65 C113.18,93.57 114.00,93.84 114.00,93.26 C114.00,91.62 107.26,86.10 104.37,85.38 C101.60,84.68 88.13,85.53 87.20,86.46 C86.33,87.33 92.11,92.97 96.00,95.05 ZM 141.32 153.88 C135.37,156.94 124.00,152.22 124.00,146.70 C124.00,145.00 124.41,144.85 127.25,145.58 C131.23,146.59 141.52,146.57 145.25,145.53 C147.57,144.89 148.00,145.07 148.00,146.71 C148.00,148.75 144.99,151.98 141.32,153.88 ZM 76.71 177.37 C77.05,177.72 78.74,178.00 80.46,178.00 C84.26,178.00 91.41,171.36 90.84,168.36 C90.27,165.38 85.77,165.48 82.10,168.57 C79.68,170.61 77.46,173.68 76.74,175.65 C76.78,171.62 77.00,170.88 77.99,171.49 C78.53,171.83 78.78,171.52 78.54,170.80 C77.84,168.73 77.47,165.94 77.48,163.49 C77.64,163.92 77.87,164.30 78.20,164.63 C79.43,165.86 80.14,165.84 83.45,164.45 C85.56,163.57 88.33,163.12 89.61,163.44 C93.66,164.45 94.85,168.74 92.57,174.11 C92.24,174.90 92.37,175.45 93.64,175.98 C93.62,175.97 93.59,175.96 93.56,175.95 C91.55,175.35 90.15,175.46 89.16,176.29 C88.35,176.95 87.42,177.36 87.10,177.20 C85.36,176.32 86.14,180.52 88.10,182.61 C89.36,183.95 90.48,185.60 90.59,186.27 C90.62,186.48 90.67,186.72 90.71,186.97 C89.12,183.97 85.11,180.82 81.24,180.30 C77.84,179.85 77.03,180.14 75.16,182.52 C74.30,183.61 73.71,184.87 73.36,186.18 C73.66,183.04 73.92,179.93 73.95,179.25 C73.98,178.56 74.61,178.00 75.36,178.00 C75.84,178.00 76.27,177.58 76.52,176.96 C76.54,177.13 76.61,177.27 76.71,177.37 ZM 126.78 129.44 C123.51,131.73 120.42,131.35 118.07,128.37 C114.26,123.52 115.90,119.54 121.70,119.56 C127.65,119.57 129.00,120.47 129.00,124.41 C129.00,126.87 128.35,128.34 126.78,129.44 ZM 156.01 128.49 C154.71,129.87 152.68,131.00 151.50,131.00 C148.87,131.00 144.99,127.08 145.02,124.44 C145.04,120.78 146.46,119.86 151.58,120.19 C155.87,120.46 156.58,120.83 157.42,123.24 C158.22,125.51 157.98,126.39 156.01,128.49 ZM 91.00 128.43 C91.00,130.36 90.23,132.39 89.10,133.41 C87.30,135.04 87.12,135.01 85.60,132.84 C82.74,128.75 84.19,122.00 87.93,122.00 C90.10,122.00 91.00,123.89 91.00,128.43 ZM 120.15 89.56 C121.64,86.29 120.60,84.00 117.61,84.00 C111.96,84.00 110.80,87.35 115.35,90.53 C118.20,92.53 118.86,92.40 120.15,89.56 ZM 123.00 88.25 C123.00,90.96 125.39,90.32 127.88,86.95 C130.22,83.79 130.39,80.96 128.28,80.26 C126.87,79.79 123.01,85.65 123.00,88.25 ZM 90.98 191.03 C90.70,191.66 90.15,192.00 89.33,192.00 C88.42,192.00 87.91,192.24 88.21,192.54 C88.50,192.84 87.58,194.41 86.15,196.04 C84.42,198.01 82.61,199.00 80.72,199.00 C79.08,199.00 78.14,198.58 78.50,198.00 C78.62,197.80 78.65,197.61 78.59,197.46 C81.79,198.35 84.50,197.52 84.28,195.50 C84.15,194.40 83.93,192.39 83.78,191.03 C83.59,189.34 84.05,188.45 85.25,188.21 C86.34,187.99 87.00,188.46 87.00,189.46 C87.00,191.53 89.88,192.64 90.98,191.03 ZM 96.35 217.66 C98.10,217.88 99.75,218.38 100.43,218.94 C101.91,220.17 101.91,220.44 100.46,222.04 C97.92,224.85 100.34,225.51 112.19,225.25 C114.18,225.20 116.06,225.21 117.70,225.25 C115.82,225.22 113.56,225.25 111.02,225.34 C104.52,225.56 98.72,225.45 98.14,225.09 C97.57,224.73 96.98,222.73 96.84,220.64 C96.73,219.09 96.64,218.17 96.35,217.66 ZM 123.50 66.00 C123.50,67.83 122.90,68.59 121.25,68.82 C119.33,69.09 119.00,68.68 119.00,66.00 C119.00,63.32 119.33,62.91 121.25,63.18 C122.90,63.41 123.50,64.17 123.50,66.00 ZM 176.07 181.76 C176.62,181.46 177.00,180.89 177.00,180.04 C177.00,177.92 180.42,175.52 182.02,176.51 C182.56,176.85 183.00,178.14 183.00,179.39 C183.00,180.18 183.12,180.99 183.30,181.57 C183.06,181.09 182.92,180.46 182.88,179.69 C182.80,178.12 182.64,177.98 182.33,179.17 C182.05,180.22 180.37,181.10 177.82,181.53 C177.16,181.64 176.59,181.72 176.07,181.76 ZM 86.45 129.65 C86.97,131.73 87.34,131.96 88.54,130.97 C90.44,129.39 90.46,125.00 88.56,125.00 C86.50,125.00 85.71,126.72 86.45,129.65 ZM 94.78 176.35 C96.65,176.88 99.84,177.42 105.04,178.19 C104.50,178.34 104.28,178.64 104.50,179.00 C105.47,180.58 98.75,180.13 96.56,178.47 C95.49,177.66 95.04,176.96 95.56,176.91 C95.93,176.88 95.58,176.65 94.78,176.35 ZM 131.00 41.07 C131.00,41.58 130.10,42.00 129.00,42.00 C126.90,42.00 126.71,41.10 127.96,37.00 L 128.72 34.50 L 129.86 37.32 C130.49,38.86 131.00,40.55 131.00,41.07 ZM 131.75 152.31 C135.04,153.17 139.00,153.00 139.00,152.00 C139.00,151.45 137.69,151.00 136.08,151.00 C134.48,151.00 132.45,150.73 131.58,150.39 C130.71,150.06 130.00,150.25 130.00,150.82 C130.00,151.39 130.79,152.06 131.75,152.31 ZM 100.60 125.41 C101.46,127.63 103.00,126.36 103.00,123.44 C103.00,121.94 102.42,121.00 101.50,121.00 C99.93,121.00 99.58,122.74 100.60,125.41 ZM 174.20 73.88 C174.71,77.39 174.11,78.30 172.10,77.06 C171.04,76.41 171.07,75.74 172.26,73.47 L 173.73 70.68 ZM 145.00 211.65 C145.00,211.47 143.99,210.45 142.75,209.40 L 140.50 207.50 L 142.40 209.75 C144.20,211.86 145.00,212.46 145.00,211.65 ZM 170.88 134.98 C171.44,133.68 171.78,131.35 171.86,128.89 C171.91,132.05 171.59,134.76 170.88,134.98 ZM 77.23 196.98 C75.87,196.82 74.79,195.71 74.10,193.94 C74.82,195.30 75.87,196.39 77.23,196.98 ZM 104.25 181.57 C102.02,181.38 100.47,181.33 100.22,181.45 C100.48,180.94 101.54,181.07 103.63,181.46 C103.85,181.50 104.05,181.54 104.25,181.57 ZM 87.25 213.93 C87.40,215.31 89.66,216.76 92.45,217.32 C89.96,217.16 87.40,215.46 87.25,213.93 ZM 166.30 206.91 C165.71,206.41 164.05,206.70 162.41,207.29 C164.33,206.37 165.61,206.21 166.23,206.83 C166.25,206.85 166.28,206.88 166.30,206.91 ZM 86.62 151.00 C85.16,151.59 83.78,152.44 82.55,153.45 C84.11,152.04 85.68,151.01 86.62,151.00 ZM 161.30 177.34 C162.02,177.22 162.72,177.06 163.64,176.78 C163.37,177.20 162.41,177.41 161.30,177.34 ZM 164.19 209.99 C165.17,209.69 166.01,209.31 166.45,208.89 C166.51,208.84 166.56,208.78 166.61,208.72 C166.25,209.39 165.37,209.91 164.19,209.99 ZM 186.26 182.45 C186.74,182.01 187.16,181.31 187.44,180.41 C187.20,181.56 186.81,182.24 186.26,182.45 ZM 159.79 223.86 C162.84,223.38 165.60,222.64 166.46,221.88 C166.44,221.91 166.41,221.93 166.39,221.96 C165.63,222.67 162.85,223.39 159.79,223.86 ZM 86.60 116.30 C85.71,116.97 84.91,117.91 84.24,119.07 C84.89,117.87 85.68,116.91 86.60,116.30 Z" fill="rgb(7,51,106)"/>
<path d="M 135.61 197.18 C135.87,197.60 136.22,197.85 136.72,197.91 C134.28,198.70 131.78,199.23 129.37,199.43 C128.68,199.36 127.84,199.32 126.81,199.30 C125.96,199.29 125.21,199.31 124.60,199.36 C124.40,199.33 124.20,199.30 124.00,199.27 C114.09,197.67 106.25,193.00 102.36,186.35 C101.12,184.24 100.23,182.31 100.16,181.67 C100.17,181.59 100.19,181.52 100.22,181.45 C100.47,181.33 102.02,181.38 104.25,181.57 C105.20,181.74 105.85,181.80 106.26,181.76 C107.30,181.87 108.41,181.99 109.57,182.13 C112.24,182.47 116.71,182.65 121.80,182.71 C130.06,182.90 140.40,182.74 144.92,182.21 C148.26,182.00 150.89,181.73 152.25,181.41 C154.99,180.77 155.62,181.56 154.10,184.30 C154.41,183.50 154.31,183.00 153.63,183.00 C152.82,183.00 151.19,184.58 149.99,186.51 C147.59,190.40 143.55,193.35 144.68,190.38 C145.07,189.38 143.30,190.23 140.21,192.54 C137.40,194.64 135.33,196.72 135.61,197.18 ZM 94.78 176.35 C94.46,176.24 94.08,176.11 93.64,175.98 C92.37,175.45 92.24,174.90 92.57,174.11 C93.87,171.06 94.04,168.35 93.20,166.40 C93.69,167.10 94.00,167.82 94.00,168.45 C94.00,169.94 96.38,170.60 107.00,172.08 C110.03,172.51 122.40,172.71 134.50,172.53 C157.17,172.19 165.20,171.08 172.30,167.30 C174.06,166.36 176.06,165.70 176.75,165.84 C177.33,165.96 177.71,165.51 177.89,164.75 C177.52,166.66 176.57,168.56 175.00,170.34 C173.36,172.22 170.77,174.22 169.25,174.78 C167.45,175.46 166.10,175.95 165.03,176.32 C164.42,176.27 163.87,176.43 163.64,176.78 C162.72,177.06 162.02,177.22 161.30,177.34 C161.00,177.32 160.69,177.28 160.38,177.22 C158.80,176.92 157.95,177.10 158.30,177.67 C158.30,177.68 158.30,177.68 158.30,177.68 C133.82,180.24 120.92,180.45 107.49,178.55 C107.83,178.32 107.31,178.12 106.19,178.08 C105.73,178.06 105.33,178.10 105.04,178.19 C99.84,177.42 96.65,176.88 94.78,176.35 ZM 85.89 138.19 C83.35,135.92 82.65,134.40 82.26,130.31 C82.16,129.36 82.13,128.44 82.14,127.55 C82.27,124.46 83.01,121.35 84.24,119.07 C84.91,117.91 85.71,116.97 86.60,116.30 C86.80,116.16 87.01,116.04 87.23,115.94 C87.44,115.85 87.66,115.70 87.90,115.52 C88.80,115.13 89.74,114.99 90.69,115.13 C89.51,115.10 88.08,115.52 87.31,116.16 C85.91,117.32 86.00,117.53 88.10,118.02 C90.46,118.58 92.13,120.93 94.02,126.33 C95.26,129.86 97.40,129.33 97.80,125.39 C97.82,125.18 97.83,124.97 97.82,124.74 C98.73,130.79 96.89,137.92 93.06,139.97 C90.21,141.49 89.34,141.28 85.89,138.19 ZM 118.11 132.60 C114.80,130.77 113.08,127.26 113.04,122.25 L 113.00 118.00 L 121.89 118.00 C131.70,118.00 132.00,118.20 132.00,124.66 C132.00,131.66 124.32,136.05 118.11,132.60 ZM 145.95 131.25 C143.80,129.33 142.71,127.28 142.33,124.46 C141.58,118.80 143.08,117.84 152.16,118.20 L 159.50 118.50 L 159.82 122.38 C160.63,132.31 152.77,137.34 145.95,131.25 ZM 126.78 129.44 C128.35,128.34 129.00,126.87 129.00,124.41 C129.00,120.47 127.65,119.57 121.70,119.56 C115.90,119.54 114.26,123.52 118.07,128.37 C120.42,131.35 123.51,131.73 126.78,129.44 ZM 132.55 211.39 C131.71,211.53 130.79,211.65 129.82,211.74 C121.17,212.50 120.00,214.33 125.11,219.10 L 128.21 222.00 L 125.36 221.99 C123.79,221.98 120.52,220.85 118.11,219.46 C113.43,216.79 111.82,216.87 114.11,219.64 C114.23,219.80 114.34,219.94 114.41,220.07 L 113.20 218.53 C110.42,214.99 110.44,213.76 113.33,210.40 L 115.66 207.69 L 118.77 209.98 C121.51,212.02 122.68,212.22 128.96,211.77 C130.31,211.67 131.50,211.55 132.55,211.39 ZM 156.01 128.49 C157.98,126.39 158.22,125.51 157.42,123.24 C156.58,120.83 155.87,120.46 151.58,120.19 C146.46,119.86 145.04,120.78 145.02,124.44 C144.99,127.08 148.87,131.00 151.50,131.00 C152.68,131.00 154.71,129.87 156.01,128.49 ZM 186.26 182.45 L 186.25 182.46 C184.84,183.00 183.83,182.68 183.30,181.57 C183.12,180.99 183.00,180.18 183.00,179.39 C183.00,178.14 182.56,176.85 182.02,176.51 C180.42,175.52 177.00,177.92 177.00,180.04 C177.00,180.89 176.62,181.46 176.07,181.76 C174.67,181.86 173.76,181.67 173.08,181.06 C172.84,180.78 172.64,180.43 172.50,180.01 C171.86,177.98 177.44,170.61 180.57,168.69 C180.81,169.14 181.39,169.86 182.32,170.97 C185.31,174.52 186.54,178.16 185.58,180.64 C185.06,182.01 185.20,182.08 186.48,181.02 C186.93,180.65 187.33,180.02 187.61,179.33 C187.57,179.73 187.51,180.09 187.44,180.41 C187.16,181.31 186.74,182.01 186.26,182.45 ZM 86.62 151.00 L 86.64 151.00 C87.04,151.00 87.40,150.86 87.65,150.63 C89.90,149.90 90.64,150.18 92.72,152.26 C95.29,154.84 95.13,157.37 92.47,156.35 C91.62,156.03 91.07,156.34 91.01,157.16 C91.00,157.12 91.00,157.07 91.00,157.03 C91.00,155.14 89.13,154.00 86.02,154.00 C84.00,154.00 81.72,159.10 82.65,161.53 C83.24,163.07 84.10,163.33 87.69,163.05 C88.25,163.00 88.88,163.15 89.53,163.42 C88.22,163.14 85.52,163.59 83.45,164.45 C80.14,165.84 79.43,165.86 78.20,164.63 C77.87,164.30 77.64,163.92 77.48,163.49 C77.49,161.82 77.68,160.30 78.05,159.29 C78.69,157.55 80.61,155.20 82.55,153.45 C83.78,152.44 85.16,151.59 86.62,151.00 ZM 91.00 128.43 C91.00,123.89 90.10,122.00 87.93,122.00 C84.19,122.00 82.74,128.75 85.60,132.84 C87.12,135.01 87.30,135.04 89.10,133.41 C90.23,132.39 91.00,130.36 91.00,128.43 ZM 78.12 177.82 C79.37,177.53 81.27,175.83 84.38,172.41 C88.48,167.91 88.99,166.93 87.55,166.38 C87.35,166.30 87.12,166.26 86.86,166.26 C88.88,165.95 90.51,166.64 90.84,168.36 C91.41,171.36 84.26,178.00 80.46,178.00 C79.62,178.00 78.79,177.93 78.12,177.82 ZM 77.23 196.98 C75.87,196.39 74.82,195.30 74.10,193.94 C73.36,192.03 73.06,189.37 73.35,186.28 L 73.36 186.18 C73.66,185.07 74.13,184.00 74.78,183.04 C74.35,184.06 74.22,185.36 74.51,186.92 C75.30,191.09 77.18,193.98 80.24,195.67 C81.84,196.56 83.02,196.99 83.77,196.96 C82.86,197.86 80.84,198.09 78.59,197.46 C78.48,197.18 78.12,197.00 77.58,197.00 C77.46,197.00 77.35,196.99 77.23,196.98 ZM 169.29 151.64 C168.34,151.21 167.60,151.06 167.33,151.33 C167.07,151.60 166.73,152.42 166.58,153.16 C166.13,155.37 165.60,156.92 164.73,158.04 C164.76,157.98 164.78,157.92 164.79,157.85 C164.99,156.81 164.49,156.26 163.41,156.35 C160.92,156.57 160.67,154.63 162.84,151.94 L 164.75 149.59 L 168.94 151.47 C169.06,151.53 169.18,151.58 169.29,151.64 ZM 124.56 205.10 C124.12,204.38 124.88,203.77 126.46,203.39 C127.92,203.17 129.51,203.01 130.47,203.00 L 130.47 203.00 C130.51,203.00 130.54,203.00 130.58,203.00 C134.14,203.00 135.16,204.34 132.42,205.39 C130.05,206.30 125.19,206.12 124.56,205.10 ZM 86.45 129.65 C85.71,126.72 86.50,125.00 88.56,125.00 C90.46,125.00 90.44,129.39 88.54,130.97 C87.34,131.96 86.97,131.73 86.45,129.65 ZM 170.88 134.98 C170.84,134.99 170.81,135.00 170.78,135.00 C170.33,135.00 170.18,135.34 170.38,135.79 C170.37,135.80 170.35,135.82 170.34,135.83 C169.23,136.87 169.00,135.72 169.00,129.12 C169.00,127.53 168.96,125.95 168.90,124.54 C169.07,125.92 169.30,127.37 169.58,128.75 C170.20,131.81 171.45,131.55 171.86,128.98 C171.77,131.41 171.43,133.70 170.88,134.98 ZM 100.60 125.41 C99.58,122.74 99.93,121.00 101.50,121.00 C102.42,121.00 103.00,121.94 103.00,123.44 C103.00,126.36 101.46,127.63 100.60,125.41 ZM 120.13 163.51 C108.23,163.09 97.83,161.66 93.34,159.48 C97.48,161.29 106.91,162.74 120.13,163.51 ZM 163.78 159.01 C162.68,159.89 161.17,160.44 159.00,160.91 C157.82,161.16 156.59,161.39 155.31,161.61 C159.28,160.87 162.30,159.97 163.78,159.01 ZM 168.82 118.06 C168.62,118.29 168.54,119.16 168.57,120.40 C168.51,120.02 168.45,119.74 168.39,119.58 C167.84,118.14 168.19,117.73 168.82,118.06 ZM 186.04 172.48 C184.76,170.46 183.09,168.67 181.82,168.23 C181.87,168.23 181.92,168.23 181.96,168.24 C183.24,168.48 184.84,170.31 186.04,172.48 ZM 76.74 175.71 L 76.74 175.65 C77.46,173.68 79.68,170.61 82.10,168.57 C82.20,168.48 82.30,168.40 82.40,168.32 C80.06,170.34 77.54,173.71 76.74,175.71 ZM 146.83 192.78 C148.64,191.27 150.42,189.46 151.78,187.81 C151.70,187.93 151.62,188.04 151.53,188.16 C150.31,189.82 148.70,191.38 146.83,192.78 ZM 88.40 184.01 C89.37,184.95 90.18,185.97 90.71,186.97 C90.76,187.26 90.82,187.55 90.87,187.82 C90.77,187.57 90.66,187.31 90.53,187.06 C89.93,185.90 89.20,184.89 88.40,184.01 ZM 178.00 164.06 C178.13,162.55 177.77,160.37 177.01,158.55 C177.88,160.31 178.22,162.18 178.00,164.06 ZM 111.58 220.71 L 113.83 221.07 C113.20,221.11 112.22,220.94 111.01,220.59 C111.22,220.64 111.41,220.68 111.58,220.71 ZM 76.71 180.86 C77.36,180.37 78.01,180.15 78.94,180.13 C78.12,180.24 77.36,180.48 76.71,180.86 ZM 83.95 192.61 C83.69,191.36 83.63,190.38 83.79,189.67 C83.72,190.05 83.72,190.50 83.78,191.03 C83.83,191.50 83.89,192.05 83.95,192.61 ZM 174.11 154.79 C172.96,153.80 171.60,152.86 170.39,152.19 C171.83,152.96 173.07,153.84 174.11,154.79 ZM 96.52 120.31 C95.91,119.14 95.14,118.03 94.30,117.15 C94.79,117.64 95.26,118.22 95.72,118.90 C96.01,119.34 96.28,119.81 96.52,120.31 ZM 76.71 177.37 C76.62,177.28 76.56,177.17 76.53,177.02 C76.54,177.06 76.56,177.09 76.58,177.12 C76.66,177.25 76.74,177.37 76.84,177.47 C76.78,177.44 76.74,177.41 76.71,177.37 ZM 138.92 208.71 C140.08,207.81 140.54,208.15 142.51,210.01 C140.54,208.16 140.07,207.82 138.92,208.71 ZM 104.88 218.12 C103.62,217.51 102.33,216.81 101.07,216.04 C102.27,216.77 103.59,217.48 104.88,218.12 ZM 170.89 120.77 C170.87,120.71 170.84,120.64 170.82,120.58 C170.83,120.61 170.85,120.64 170.86,120.67 C170.87,120.70 170.88,120.74 170.89,120.77 Z" fill="rgb(11,112,191)"/>
<path d="M 162.13 113.50 C161.97,114.04 162.15,114.18 162.52,113.81 C169.00,121.66 168.33,132.81 160.68,138.43 C158.08,140.34 156.33,140.52 138.18,140.70 C127.36,140.81 117.36,140.54 115.97,140.10 C108.30,137.65 105.00,132.39 105.00,122.62 C105.00,117.13 105.39,115.69 107.57,113.10 C111.59,108.32 115.72,107.71 138.26,108.53 L 158.10 109.26 L 161.20 112.35 C161.53,112.68 161.85,113.03 162.16,113.38 C162.15,113.42 162.14,113.46 162.13,113.50 ZM 159.06 135.97 C163.86,133.40 165.44,124.18 162.14,117.98 C159.14,112.34 157.71,112.03 134.67,112.01 L 113.85 112.00 L 110.81 115.04 C107.92,117.92 107.79,118.40 108.19,124.67 C108.57,130.58 108.94,131.56 111.82,134.13 L 115.03 137.00 L 136.08 137.00 C148.61,137.00 157.91,136.58 159.06,135.97 ZM 169.29 151.64 C169.67,151.81 170.04,152.00 170.39,152.19 C171.60,152.86 172.96,153.80 174.11,154.79 C175.38,155.95 176.35,157.22 177.01,158.55 C177.77,160.37 178.13,162.55 178.00,164.06 C177.97,164.29 177.94,164.52 177.89,164.75 C177.71,165.51 177.33,165.96 176.75,165.84 C176.06,165.70 174.06,166.36 172.30,167.30 C165.20,171.08 157.17,172.19 134.50,172.53 C122.40,172.71 110.03,172.51 107.00,172.08 C96.38,170.60 94.00,169.94 94.00,168.45 C94.00,167.82 93.69,167.10 93.20,166.40 C92.57,164.92 91.36,163.88 89.61,163.44 C88.88,163.15 88.25,163.00 87.69,163.05 C84.10,163.33 83.24,163.07 82.65,161.53 C81.72,159.10 84.00,154.00 86.02,154.00 C89.13,154.00 91.00,155.14 91.00,157.03 C91.00,157.07 91.00,157.12 91.01,157.16 C91.00,157.21 91.00,157.26 91.00,157.32 C91.00,158.08 91.81,158.80 93.34,159.48 C97.83,161.66 108.23,163.09 120.13,163.51 C120.46,163.53 120.80,163.55 121.14,163.57 C132.89,164.21 146.46,163.28 155.31,161.61 C156.59,161.39 157.82,161.16 159.00,160.91 C161.17,160.44 162.68,159.89 163.78,159.01 C164.27,158.70 164.60,158.37 164.73,158.04 C165.60,156.92 166.13,155.37 166.58,153.16 C166.73,152.42 167.07,151.60 167.33,151.33 C167.60,151.06 168.34,151.21 169.29,151.64 ZM 133.74 228.94 C132.78,228.36 131.54,228.17 130.99,228.50 C130.45,228.84 130.00,228.66 130.00,228.09 C130.00,227.53 129.32,227.32 128.50,227.64 C127.67,227.96 127.00,227.67 127.00,227.00 C127.00,226.33 126.34,226.04 125.53,226.35 C124.72,226.66 123.79,226.47 123.45,225.92 C123.21,225.54 121.09,225.30 117.70,225.25 C116.06,225.21 114.18,225.20 112.19,225.25 C100.34,225.51 97.92,224.85 100.46,222.04 C101.91,220.44 101.91,220.17 100.43,218.94 C99.75,218.38 98.10,217.88 96.35,217.66 C95.96,216.99 95.21,217.04 93.59,217.27 C93.22,217.33 92.84,217.34 92.45,217.32 C89.66,216.76 87.40,215.31 87.25,213.93 C87.22,213.64 87.29,213.35 87.45,213.08 C87.96,212.25 89.57,211.93 91.51,212.07 C94.01,212.45 97.39,213.82 101.07,216.04 C102.27,216.77 103.59,217.48 104.88,218.12 L 104.88 218.12 C107.23,219.29 109.52,220.22 111.01,220.59 C112.22,220.94 113.20,221.11 113.83,221.07 L 115.40 221.33 L 114.41 220.07 C114.34,219.94 114.23,219.80 114.11,219.64 C111.82,216.87 113.43,216.79 118.11,219.46 C120.52,220.85 123.79,221.98 125.36,221.99 L 128.21 222.00 L 125.11 219.10 C120.00,214.33 121.17,212.50 129.82,211.74 C130.79,211.65 131.71,211.53 132.55,211.39 C135.29,210.98 137.05,210.36 138.04,209.47 C138.38,209.16 138.67,208.90 138.92,208.71 L 138.92 208.71 C140.07,207.82 140.54,208.16 142.51,210.01 C145.17,212.50 145.80,216.80 143.82,218.78 C141.25,221.35 144.08,220.97 149.23,218.07 C155.10,214.75 156.88,214.23 155.13,216.34 C153.51,218.30 154.75,219.00 159.92,219.02 C162.80,219.02 165.03,219.45 166.14,220.09 C166.65,220.76 166.84,221.44 166.46,221.88 C165.60,222.64 162.84,223.38 159.79,223.86 C156.86,224.31 153.68,224.52 151.72,224.27 C148.79,223.89 147.07,224.35 144.05,226.35 C139.28,229.51 136.05,230.32 133.74,228.94 ZM 90.98 191.03 C89.88,192.64 87.00,191.53 87.00,189.46 C87.00,188.46 86.34,187.99 85.25,188.21 C84.43,188.37 83.95,188.85 83.79,189.67 C83.63,190.38 83.69,191.36 83.95,192.61 C84.07,193.67 84.20,194.78 84.28,195.50 C84.34,196.10 84.15,196.59 83.77,196.96 C83.02,196.99 81.84,196.56 80.24,195.67 C77.18,193.98 75.30,191.09 74.51,186.92 C74.22,185.36 74.35,184.06 74.78,183.04 C74.90,182.86 75.03,182.69 75.16,182.52 C75.74,181.78 76.23,181.24 76.71,180.86 C77.36,180.48 78.12,180.24 78.94,180.13 C79.56,180.11 80.30,180.18 81.24,180.30 C83.81,180.65 86.45,182.16 88.40,184.01 C89.20,184.89 89.93,185.90 90.53,187.06 C90.66,187.31 90.77,187.57 90.87,187.82 C90.92,188.08 90.97,188.32 91.01,188.50 C91.26,189.58 91.24,190.43 90.98,191.03 ZM 96.52 120.31 C97.15,121.64 97.58,123.15 97.82,124.74 C97.83,124.97 97.82,125.18 97.80,125.39 C97.40,129.33 95.26,129.86 94.02,126.33 C92.13,120.93 90.46,118.58 88.10,118.02 C86.00,117.53 85.91,117.32 87.31,116.16 C88.08,115.52 89.51,115.10 90.69,115.13 C91.91,115.32 93.14,115.97 94.30,117.15 C95.14,118.03 95.91,119.14 96.52,120.31 ZM 135.61 197.18 C135.33,196.72 137.40,194.64 140.21,192.54 C143.30,190.23 145.07,189.38 144.68,190.38 C143.55,193.35 147.59,190.40 149.99,186.51 C151.19,184.58 152.82,183.00 153.63,183.00 C154.31,183.00 154.41,183.50 154.10,184.30 C153.58,185.24 152.81,186.40 151.78,187.81 C150.42,189.46 148.64,191.27 146.83,192.78 C143.91,194.95 140.38,196.73 136.72,197.91 C136.22,197.85 135.87,197.60 135.61,197.18 ZM 78.12 177.82 C77.54,177.73 77.08,177.61 76.84,177.47 C76.74,177.37 76.66,177.25 76.58,177.12 C76.56,177.09 76.54,177.06 76.53,177.02 C76.52,177.00 76.52,176.98 76.52,176.96 C76.66,176.61 76.74,176.20 76.74,175.75 L 76.74 175.71 C77.54,173.71 80.06,170.34 82.40,168.32 C83.88,167.16 85.46,166.47 86.86,166.26 C87.12,166.26 87.35,166.30 87.55,166.38 C88.99,166.93 88.48,167.91 84.38,172.41 C81.27,175.83 79.37,177.53 78.12,177.82 ZM 155.00 200.37 C155.00,198.35 160.41,193.00 162.45,193.00 C164.47,193.00 165.62,195.78 164.20,197.20 C163.62,197.78 161.31,199.08 159.07,200.08 C155.55,201.66 155.00,201.70 155.00,200.37 ZM 98.75 205.43 C95.31,203.56 94.98,199.99 98.25,200.02 C101.16,200.04 102.27,200.89 103.75,204.25 C104.81,206.66 104.74,207.00 103.23,206.96 C102.28,206.94 100.26,206.25 98.75,205.43 ZM 186.04 172.48 C186.86,173.94 187.49,175.55 187.74,176.94 C187.73,177.91 187.68,178.67 187.61,179.33 C187.33,180.02 186.93,180.65 186.48,181.02 C185.20,182.08 185.06,182.01 185.58,180.64 C186.54,178.16 185.31,174.52 182.32,170.97 C181.39,169.86 180.81,169.14 180.57,168.69 C181.06,168.39 181.48,168.22 181.82,168.23 C183.09,168.67 184.76,170.46 186.04,172.48 ZM 168.82 118.06 C169.40,118.36 170.23,119.28 170.82,120.58 C170.84,120.64 170.87,120.71 170.89,120.77 C171.49,122.87 171.82,126.06 171.86,128.89 C171.86,128.92 171.86,128.95 171.86,128.98 C171.45,131.55 170.20,131.81 169.58,128.75 C169.30,127.37 169.07,125.92 168.90,124.54 C168.82,122.79 168.71,121.31 168.57,120.40 C168.54,119.16 168.62,118.29 168.82,118.06 ZM 166.30 206.91 C166.85,207.50 166.91,208.16 166.61,208.72 C166.56,208.78 166.51,208.84 166.45,208.89 C166.01,209.31 165.17,209.69 164.19,209.99 C164.09,210.00 163.99,210.00 163.88,210.00 C163.23,210.00 162.75,210.16 162.54,210.40 C160.73,210.74 158.97,210.76 158.64,210.22 C158.54,210.07 158.54,209.89 158.63,209.70 C159.75,208.84 160.94,208.05 161.97,207.52 C162.12,207.44 162.27,207.36 162.41,207.29 C164.05,206.70 165.71,206.41 166.30,206.91 Z" fill="rgb(4,151,226)"/>
<path d="M 114.33 160.15 C107.44,159.60 105.48,159.02 101.86,156.47 C97.87,153.67 91.00,145.83 91.00,144.08 C91.00,143.66 92.13,142.81 93.50,142.18 C96.44,140.84 99.99,135.44 100.00,132.31 C100.00,128.34 101.85,128.88 103.87,133.45 C107.49,141.63 108.86,141.99 136.12,142.00 C158.49,142.00 159.87,141.89 162.37,139.93 C165.70,137.30 165.77,138.80 162.63,145.54 C159.95,151.29 152.40,158.47 148.11,159.33 C143.11,160.33 122.84,160.82 114.33,160.15 ZM 97.47 116.60 C96.56,115.21 94.96,113.81 93.91,113.47 C92.86,113.14 92.00,112.55 92.00,112.17 C92.00,111.78 94.06,109.11 96.58,106.23 C99.88,102.46 101.90,100.98 103.83,100.93 C108.76,100.81 117.51,97.37 117.36,95.61 C117.28,94.65 118.23,93.73 119.69,93.36 C123.52,92.40 134.51,93.85 140.54,96.10 C146.20,98.22 155.15,103.77 155.69,105.50 C155.89,106.15 149.10,106.39 136.25,106.20 C125.39,106.03 115.05,106.16 113.28,106.49 C108.95,107.28 104.20,111.45 103.19,115.33 C102.16,119.32 99.62,119.88 97.47,116.60 ZM 116.25 50.75 C116.50,50.06 118.39,44.42 120.45,38.20 L 124.20 26.90 L 129.29 27.20 L 134.37 27.50 L 137.67 38.00 C141.89,51.47 141.89,52.00 137.62,52.00 C135.07,52.00 134.10,51.50 133.71,50.00 C133.30,48.41 132.35,48.00 129.13,48.00 C126.09,48.00 124.80,48.50 124.00,50.00 C122.77,52.31 115.41,53.02 116.25,50.75 ZM 103.61 45.30 C103.24,41.01 102.67,35.36 102.34,32.75 L 101.74 28.00 L 109.84 28.00 L 110.45 34.25 C110.78,37.69 111.16,43.20 111.28,46.50 L 111.50 52.50 L 107.89 52.80 L 104.29 53.10 ZM 147.75 53.31 C145.72,52.78 145.68,51.34 147.34,38.50 L 148.50 29.50 L 151.76 29.19 C156.14,28.76 156.52,30.18 155.06,41.32 C153.94,49.88 153.55,53.00 152.01,53.76 C151.12,54.19 149.86,53.86 147.88,53.34 ZM 96.00 95.05 C92.11,92.97 86.33,87.33 87.20,86.46 C88.13,85.53 101.60,84.68 104.37,85.38 C107.26,86.10 114.00,91.62 114.00,93.26 C114.00,93.84 113.18,93.57 112.17,92.65 C111.17,91.74 109.56,91.00 108.61,91.00 C107.66,91.00 107.11,90.63 107.39,90.18 C107.67,89.72 107.14,89.35 106.20,89.35 C105.27,89.36 102.47,89.22 100.00,89.05 L 95.50 88.74 L 99.00 88.00 C101.66,87.44 100.71,87.26 95.00,87.27 C90.88,87.27 88.62,87.48 90.00,87.73 C93.27,88.34 105.73,92.43 109.28,94.06 C111.27,94.99 111.70,95.58 110.78,96.16 C108.45,97.64 99.61,96.97 96.00,95.05 ZM 141.32 153.88 C144.99,151.98 148.00,148.75 148.00,146.71 C148.00,145.07 147.57,144.89 145.25,145.53 C141.52,146.57 131.23,146.59 127.25,145.58 C124.41,144.85 124.00,145.00 124.00,146.70 C124.00,152.22 135.37,156.94 141.32,153.88 ZM 123.00 88.25 C123.01,85.65 126.87,79.79 128.28,80.26 C130.39,80.96 130.22,83.79 127.88,86.95 C125.39,90.32 123.00,90.96 123.00,88.25 ZM 131.00 41.07 C131.00,40.55 130.49,38.86 129.86,37.32 L 128.72 34.50 L 127.96 37.00 C126.71,41.10 126.90,42.00 129.00,42.00 C130.10,42.00 131.00,41.58 131.00,41.07 ZM 131.75 152.31 C130.79,152.06 130.00,151.39 130.00,150.82 C130.00,150.25 130.71,150.06 131.58,150.39 C132.45,150.73 134.48,151.00 136.08,151.00 C137.69,151.00 139.00,151.45 139.00,152.00 C139.00,153.00 135.04,153.17 131.75,152.31 Z" fill="rgb(238,154,21)"/>
<path d="M 187.25 90.03 C182.86,88.03 181.95,86.11 184.43,84.06 C185.54,83.13 186.55,83.23 189.04,84.52 C191.45,85.77 192.51,85.89 193.36,85.01 C194.22,84.15 193.56,83.10 190.75,80.83 C186.18,77.14 185.72,73.18 189.45,69.45 C192.42,66.49 195.42,66.35 199.75,68.99 C203.29,71.15 203.84,73.06 201.48,75.02 C200.24,76.04 199.63,75.97 198.15,74.64 C196.26,72.93 193.00,72.41 193.00,73.82 C193.00,74.26 194.57,76.03 196.50,77.73 C200.84,81.58 201.22,85.87 197.55,89.55 C194.60,92.49 192.85,92.57 187.25,90.03 ZM 63.24 88.74 C62.69,88.06 61.43,84.28 60.43,80.34 L 58.61 73.19 L 55.30 73.73 C52.43,74.19 52.00,73.98 52.00,72.13 C52.00,70.96 51.94,69.66 51.88,69.25 C51.71,68.21 67.34,63.95 68.17,64.81 C69.87,66.58 69.39,69.53 67.25,70.48 C64.55,71.68 64.55,71.63 66.93,80.81 C68.69,87.58 68.71,88.17 67.17,88.72 C66.25,89.04 65.21,89.46 64.86,89.64 C64.51,89.83 63.78,89.42 63.24,88.74 ZM 176.25 87.34 C175.56,87.06 175.00,86.02 175.00,85.02 C175.00,81.99 168.44,80.68 167.36,83.50 C166.73,85.15 164.25,85.45 162.17,84.13 C161.13,83.47 161.95,81.08 165.89,73.22 C168.67,67.68 171.29,62.95 171.72,62.70 C173.13,61.87 178.85,63.18 179.34,64.44 C179.60,65.11 180.14,70.69 180.53,76.83 C181.22,87.37 181.15,88.00 179.38,87.92 C178.35,87.88 176.94,87.62 176.25,87.34 ZM 174.20 73.88 L 173.73 70.68 L 172.26 73.47 C171.07,75.74 171.04,76.41 172.10,77.06 C174.11,78.30 174.71,77.39 174.20,73.88 ZM 75.57 84.82 C74.53,81.55 71.69,63.98 72.13,63.54 C72.40,63.26 73.71,62.92 75.03,62.77 C77.12,62.54 77.56,63.06 78.36,66.75 C79.19,70.58 79.57,71.00 82.24,71.00 L 85.19 71.00 L 84.52 66.13 C83.87,61.44 83.95,61.23 86.54,60.58 C88.02,60.21 89.36,60.04 89.52,60.20 C89.67,60.37 90.54,65.19 91.45,70.91 C92.79,79.38 92.85,81.48 91.80,82.15 C88.98,83.94 87.23,83.03 86.55,79.42 C86.05,76.76 85.48,75.98 84.36,76.42 C83.52,76.74 82.31,77.00 81.67,77.00 C80.96,77.00 80.50,78.67 80.50,81.25 C80.50,84.90 80.18,85.55 78.25,85.82 C77.01,86.00 75.80,85.55 75.57,84.82 ZM 153.67 82.33 C153.30,81.97 152.98,79.15 152.96,76.08 L 152.92 70.50 L 151.35 73.50 C146.68,82.44 145.05,82.65 142.36,74.66 C140.63,69.53 140.62,69.52 139.86,72.50 C139.44,74.15 138.84,76.74 138.53,78.25 C138.09,80.36 137.38,81.00 135.48,81.00 C132.52,81.00 132.43,79.99 134.19,66.81 L 135.37 57.90 L 139.43 58.20 C143.42,58.49 143.52,58.59 144.89,63.75 C145.66,66.64 146.60,69.00 146.97,69.00 C147.35,69.00 148.73,66.72 150.03,63.93 C152.37,58.95 152.48,58.87 155.96,59.52 C157.90,59.88 159.66,60.34 159.86,60.54 C160.06,60.73 159.90,65.87 159.50,71.95 C158.81,82.49 158.68,83.00 156.56,83.00 C155.33,83.00 154.03,82.70 153.67,82.33 ZM 96.11 79.75 C95.65,78.51 94.95,73.72 94.56,69.11 C93.71,59.18 93.83,59.04 102.75,59.02 C108.75,59.00 109.00,59.10 109.00,61.50 C109.00,63.42 108.48,64.00 106.75,64.01 C105.51,64.02 103.52,64.29 102.32,64.61 C98.96,65.51 100.64,68.00 104.61,68.00 C107.52,68.00 108.00,68.34 108.00,70.39 C108.00,72.34 107.34,72.90 104.44,73.45 C99.42,74.39 100.55,76.59 105.85,76.18 C109.88,75.87 110.00,75.95 110.00,78.93 L 110.00 82.00 L 103.48 82.00 C97.62,82.00 96.86,81.77 96.11,79.75 ZM 113.00 77.15 C113.00,75.03 112.71,69.86 112.35,65.65 L 111.71 58.00 L 118.68 58.00 C124.67,58.00 125.96,58.32 127.83,60.31 C130.64,63.31 130.68,68.32 127.90,71.10 C126.37,72.63 126.10,73.50 126.90,74.30 C128.50,75.90 128.26,76.79 125.87,78.07 C124.04,79.05 123.42,78.81 121.41,76.35 L 119.07 73.50 L 119.04 77.25 C119.00,80.74 118.79,81.00 116.00,81.00 C113.19,81.00 113.00,80.76 113.00,77.15 ZM 123.50 66.00 C123.50,64.17 122.90,63.41 121.25,63.18 C119.33,62.91 119.00,63.32 119.00,66.00 C119.00,68.68 119.33,69.09 121.25,68.82 C122.90,68.59 123.50,67.83 123.50,66.00 Z" fill="rgb(246,244,233)"/>
</g>
</svg>